<svg width="90" height="37" viewBox="0 0 90 37" fill="none" xmlns="http://www.w3.org/2000/svg">
<path d="M76.1445 0.0625H89.7148L89.6914 34.8906H67.2852L76.1445 27.5V0.0625Z" fill="#7F56D9"/>
<path d="M31.4727 0.0625H39.957L62.0586 18.625L62.082 0.0625H75.7852L67.2383 9V28V34.8906H58.7539L36.6289 16.3984V34.8906H31.4727V0.0625Z" fill="#7F56D9"/>
<path d="M0.285156 1.00185H13.8155V23.2088C13.8155 24.4634 13.9794 25.5534 14.3071 26.4787C14.6504 27.3883 15.1186 28.1489 15.7116 28.7605C16.3203 29.3565 17.0303 29.8034 17.8419 30.1014C18.6534 30.3994 19.5273 30.5484 20.4636 30.5484C21.4936 30.5484 22.4144 30.3994 23.2259 30.1014C24.053 29.8034 24.7553 29.3486 25.3327 28.737C25.9101 28.1254 26.3549 27.3569 26.667 26.4316C26.9791 25.5063 27.1352 24.4164 27.1352 23.1617V0H29.7852H32.2852V22.3619C32.2852 24.5261 31.934 26.4787 31.2318 28.2194C30.5451 29.9602 29.5619 31.4501 28.2822 32.6891C27.0025 33.9123 25.4576 34.8533 23.6473 35.512C21.837 36.1707 19.816 36.5 17.5844 36.5C14.5412 36.5 11.9272 36.1785 9.74236 35.5355C7.55753 34.8768 5.76285 33.9437 4.35831 32.7361C2.95377 31.5129 1.92378 30.0387 1.26833 28.3135C0.612881 26.5884 0.285156 24.6438 0.285156 22.4795V1.00185Z" fill="#7F56D9"/>
</svg>
