<svg width="20" height="20" viewBox="0 0 20 20" fill="none" xmlns="http://www.w3.org/2000/svg">
<g clip-path="url(#clip0_172_179)">
<path d="M20 10.0001C20 8.77688 19.78 7.60512 19.378 6.52184L10 6.08704L0.621992 6.5218C0.220039 7.60512 0 8.77688 0 10.0001C0 11.2233 0.220039 12.395 0.621992 13.4783L10 13.9131L19.378 13.4784C19.78 12.395 20 11.2233 20 10.0001Z" fill="#D80027"/>
<path d="M10.0001 19.9997C14.2997 19.9997 17.9652 17.2859 19.3781 13.4779H0.62207C2.035 17.2859 5.70043 19.9997 10.0001 19.9997Z" fill="#6DA544"/>
<path d="M0.62207 6.52103H19.3781C17.9652 2.71302 14.2997 -0.000732422 10.0001 -0.000732422C5.70043 -0.000732422 2.035 2.71302 0.62207 6.52103Z" fill="#338AF3"/>
<path d="M10.2175 12.8259C8.65676 12.8259 7.39144 11.5605 7.39144 9.99977C7.39144 8.43898 8.65676 7.17367 10.2175 7.17367C10.7042 7.17367 11.1621 7.29672 11.5619 7.51336C10.9347 6.90004 10.077 6.52148 9.13058 6.52148C7.20957 6.52148 5.65234 8.07875 5.65234 9.99973C5.65234 11.9207 7.20961 13.478 9.13058 13.478C10.0771 13.478 10.9347 13.0994 11.5619 12.4861C11.1621 12.7028 10.7042 12.8259 10.2175 12.8259Z" fill="#F0F0F0"/>
<path d="M12.3921 8.04236L12.7664 9.09513L13.7756 8.61537L13.2958 9.62451L14.3486 9.99888L13.2958 10.3733L13.7756 11.3824L12.7664 10.9026L12.3921 11.9554L12.0178 10.9026L11.0086 11.3824L11.4884 10.3733L10.4355 9.99888L11.4884 9.62451L11.0086 8.61537L12.0178 9.09513L12.3921 8.04236Z" fill="#F0F0F0"/>
</g>
<defs>
<clipPath id="clip0_172_179">
<rect width="20" height="20" fill="white"/>
</clipPath>
</defs>
</svg>
